<svg xmlns="http://www.w3.org/2000/svg" viewBox="0 0 600 600">
  <!-- 2015, sábados de vacunación: un perrito y un gato en la fila, y el calendario con los sábados marcados -->
  <rect width="600" height="600" fill="#fbe9e4" />
  <rect y="462" width="600" height="138" fill="#f3d3cb" />
  <rect y="458" width="600" height="8" fill="#e9bdb2" />

  <!-- Calendario: la última columna son los sábados -->
  <g>
    <rect x="215" y="95" width="170" height="130" rx="12" fill="#fff" stroke="#01215b" stroke-width="6" />
    <path d="M215 129v-22a12 12 0 0 1 12-12h146a12 12 0 0 1 12 12v22z" fill="#01215b" />
    <circle cx="255" cy="112" r="6" fill="#f5d372" />
    <circle cx="345" cy="112" r="6" fill="#f5d372" />
    <rect x="229" y="142" width="14" height="14" rx="4" fill="#e6ebf3" />
    <rect x="250" y="142" width="14" height="14" rx="4" fill="#e6ebf3" />
    <rect x="271" y="142" width="14" height="14" rx="4" fill="#e6ebf3" />
    <rect x="292" y="142" width="14" height="14" rx="4" fill="#e6ebf3" />
    <rect x="313" y="142" width="14" height="14" rx="4" fill="#e6ebf3" />
    <rect x="334" y="142" width="14" height="14" rx="4" fill="#e6ebf3" />
    <rect x="355" y="142" width="14" height="14" rx="4" fill="#3f8f7a" />
    <rect x="229" y="166" width="14" height="14" rx="4" fill="#e6ebf3" />
    <rect x="250" y="166" width="14" height="14" rx="4" fill="#e6ebf3" />
    <rect x="271" y="166" width="14" height="14" rx="4" fill="#e6ebf3" />
    <rect x="292" y="166" width="14" height="14" rx="4" fill="#e6ebf3" />
    <rect x="313" y="166" width="14" height="14" rx="4" fill="#e6ebf3" />
    <rect x="334" y="166" width="14" height="14" rx="4" fill="#e6ebf3" />
    <rect x="355" y="166" width="14" height="14" rx="4" fill="#3f8f7a" />
    <rect x="229" y="190" width="14" height="14" rx="4" fill="#e6ebf3" />
    <rect x="250" y="190" width="14" height="14" rx="4" fill="#e6ebf3" />
    <rect x="271" y="190" width="14" height="14" rx="4" fill="#e6ebf3" />
    <rect x="292" y="190" width="14" height="14" rx="4" fill="#e6ebf3" />
    <rect x="313" y="190" width="14" height="14" rx="4" fill="#e6ebf3" />
    <rect x="334" y="190" width="14" height="14" rx="4" fill="#e6ebf3" />
    <rect x="355" y="190" width="14" height="14" rx="4" fill="#3f8f7a" />
  </g>

  <!-- Perrito -->
  <g transform="translate(262 358) scale(-1.1 1.1)">
    <path class="cola" d="M150 20c30-20 40-40 30-60" stroke="#01215b" stroke-width="12" fill="none" stroke-linecap="round" />
    <ellipse cx="90" cy="40" rx="75" ry="38" fill="#f6e3c8" />
    <rect x="30" y="50" width="24" height="52" rx="12" fill="#f6e3c8" />
    <rect x="120" y="50" width="24" height="52" rx="12" fill="#f6e3c8" />
    <circle cx="20" cy="0" r="42" fill="#f6e3c8" />
    <ellipse cx="0" cy="-10" rx="16" ry="30" fill="#e0a868" transform="rotate(20 0 -10)" />
    <ellipse cx="-16" cy="12" rx="10" ry="8" fill="#01215b" />
    <circle cx="16" cy="-8" r="6" fill="#01215b" />
    <rect x="30" y="20" width="16" height="36" rx="6" fill="#3f8f7a" />
  </g>

  <!-- Gato -->
  <g transform="translate(-167.5 136.7) scale(.55)">
    <path class="cola" d="M1120 590h50c90 0 120-60 90-120-20-40-60-30-50 0" stroke="#7d8ba3" stroke-width="28" fill="none" stroke-linecap="round" />
    <path d="M960 600c-10-120 20-200 90-200s100 80 90 200z" fill="#9aa7bd" />
    <ellipse cx="1050" cy="520" rx="46" ry="70" fill="#e9edf4" />
    <rect x="1000" y="540" width="36" height="66" rx="18" fill="#9aa7bd" />
    <rect x="1064" y="540" width="36" height="66" rx="18" fill="#9aa7bd" />
    <path d="M960 250l18-90 60 60zM1140 250l-18-90-60 60z" fill="#9aa7bd" />
    <path d="M978 232l8-44 28 30zM1122 232l-8-44-28 30z" fill="#f4a9a0" />
    <circle cx="1050" cy="310" r="100" fill="#9aa7bd" />
    <ellipse cx="1050" cy="352" rx="46" ry="30" fill="#e9edf4" />
    <path d="M1040 336h20l-10 12z" fill="#f4a9a0" />
    <path d="M1050 348v8m-16 2c8 8 24 8 32 0" stroke="#01215b" stroke-width="5" fill="none" stroke-linecap="round" />
    <g class="ojos">
      <ellipse cx="1012" cy="300" rx="11" ry="15" fill="#01215b" />
      <ellipse cx="1088" cy="300" rx="11" ry="15" fill="#01215b" />
    </g>
    <path d="M990 350l-60-10m60 22l-58 10m168-22l60-10m-60 22l58 10" stroke="#01215b" stroke-width="4" stroke-linecap="round" />
  </g>

  <path class="corazon" d="M150 270c-20-13-28-23-28-32 0-9 6-14 13-14 6 0 11 3 15 9 4-6 9-9 15-9 7 0 13 5 13 14 0 9-8 19-28 32z" fill="#f4a9a0" />
  <path class="corazon" d="M500 250c-14-9-20-16-20-22 0-6 4-10 9-10 5 0 8 2 11 6 3-4 6-6 11-6 5 0 9 4 9 10 0 6-6 13-20 22z" fill="#3f8f7a" />
</svg>
